<?xml version="1.0" standalone="no"?>
<!DOCTYPE svg PUBLIC "-//W3C//DTD SVG 20010904//EN"
 "http://www.w3.org/TR/2001/REC-SVG-20010904/DTD/svg10.dtd">
<svg version="1.0" xmlns="http://www.w3.org/2000/svg"
 width="305.000000pt" height="300.000000pt" viewBox="0 0 305.000000 300.000000"
 preserveAspectRatio="xMidYMid meet">

<g transform="translate(0.000000,300.000000) scale(0.100000,-0.100000)"
fill="#000000" stroke="none">
<path d="M908 2390 c-2 -7 -40 -15 -87 -19 -74 -6 -86 -10 -107 -35 -13 -15
-24 -34 -24 -42 0 -8 -7 -14 -15 -14 -18 0 -29 -41 -21 -80 6 -33 37 -68 54
-62 6 2 17 -8 23 -22 18 -39 34 -31 36 17 1 23 4 59 8 80 7 36 8 37 54 37 25
0 55 3 66 6 28 8 84 76 67 82 -6 2 -12 15 -12 30 0 14 -3 22 -7 19 -3 -4 -12
-2 -19 4 -8 7 -13 6 -16 -1z"/>
<path d="M1410 2351 c-25 -11 -66 -27 -92 -38 -27 -10 -48 -21 -48 -25 0 -4
-15 -15 -32 -24 -68 -35 -125 -88 -173 -162 -78 -120 -134 -192 -149 -192 -7
0 -19 -7 -26 -15 -22 -26 -75 -29 -123 -6 -41 20 -46 20 -94 6 -28 -8 -57 -22
-64 -31 -9 -10 -15 -53 -17 -117 l-4 -100 38 7 c22 3 49 9 61 12 18 5 24 0 37
-30 8 -19 18 -55 21 -80 5 -34 12 -46 28 -50 35 -9 156 -5 247 8 84 13 84 13
52 26 -44 16 -52 36 -52 124 0 63 3 77 18 85 31 16 59 3 66 -32 21 -102 24
-107 69 -107 30 0 38 -3 27 -10 -10 -6 2 -10 40 -12 54 -3 55 -3 58 -36 5 -53
-12 -65 -79 -57 -52 6 -58 5 -68 -14 -17 -31 -52 -45 -215 -86 -159 -40 -211
-42 -248 -8 -28 25 -54 79 -77 160 l-20 68 0 -142 -1 -143 -150 0 c-142 0
-150 1 -150 20 0 27 -33 42 -90 39 -54 -3 -75 7 -47 22 22 13 22 44 -2 66 -23
23 -91 148 -91 168 0 24 87 155 103 155 8 0 19 10 25 23 10 22 11 22 11 -5 1
-36 21 -78 38 -78 7 0 12 4 10 8 -3 12 95 112 110 112 7 0 13 4 13 9 0 12 -58
61 -73 61 -6 0 -23 14 -37 32 -27 32 -27 32 -54 14 -23 -14 -27 -23 -24 -54 2
-31 0 -37 -18 -40 -14 -2 -32 -23 -54 -65 -18 -34 -48 -83 -66 -110 -35 -48
-40 -66 -25 -83 14 -15 97 -177 103 -201 3 -12 -1 -31 -9 -43 -8 -11 -12 -27
-9 -35 4 -10 -1 -15 -14 -15 -17 0 -20 -7 -20 -40 l0 -40 50 0 50 0 -2 -217
-3 -218 -82 -60 -82 -60 -1 -347 0 -348 1525 0 1525 0 0 724 0 725 -85 102
c-46 57 -82 105 -80 107 2 3 16 6 30 8 33 3 57 23 51 40 -3 7 8 27 24 43 36
35 41 80 10 88 -23 6 -23 5 -9 37 15 32 -4 60 -35 52 -33 -9 -56 21 -56 72 0
42 -4 48 -65 107 -36 34 -65 70 -65 81 0 10 -13 28 -29 39 -24 16 -29 24 -24
47 7 36 -12 58 -49 58 -24 0 -32 -6 -41 -30 -10 -26 -17 -29 -56 -32 -34 -2
-47 -7 -49 -21 -2 -10 5 -20 16 -25 28 -11 78 -73 84 -104 3 -16 0 -35 -7 -44
-10 -15 -14 -12 -35 21 -39 63 -147 97 -182 58 -9 -10 -18 -27 -22 -39 -6 -21
-7 -20 -61 7 -31 15 -79 41 -108 58 -29 16 -75 38 -102 49 -28 11 -84 35 -125
54 -112 51 -127 56 -225 73 -128 21 -288 20 -345 -4z m957 -313 c-3 -8 -6 -5
-6 6 -1 11 2 17 5 13 3 -3 4 -12 1 -19z m283 -77 c0 -39 9 -61 26 -61 8 0 14
-4 14 -8 0 -4 23 -36 50 -70 49 -61 60 -79 40 -67 -13 8 -13 5 3 -41 9 -27 12
-76 9 -156 -4 -107 -6 -116 -23 -115 -23 2 -23 -3 -4 93 8 43 14 78 12 79 -1
1 -33 -1 -72 -4 -69 -6 -70 -6 -73 -36 -1 -16 -5 -54 -8 -84 l-6 -54 -54 7
c-72 8 -126 55 -144 123 -17 68 -37 101 -71 119 -26 13 -33 14 -40 2 -12 -19
2 61 17 97 19 47 50 69 90 67 18 -2 34 2 34 7 0 6 6 8 13 5 8 -3 38 5 68 16
45 18 55 19 64 8 5 -8 19 -17 30 -21 13 -5 9 2 -12 21 -39 33 -41 48 -11 79
30 32 48 29 48 -6z m-155 -31 c-3 -5 -21 -10 -40 -10 -19 0 -37 5 -40 10 -4 6
12 10 40 10 28 0 44 -4 40 -10z m-435 -190 c0 -18 -7 -20 -55 -20 -48 0 -55 2
-55 20 0 18 7 20 55 20 48 0 55 -2 55 -20z m-42 -61 c19 -29 1 -45 -22 -20
-10 11 -15 25 -11 30 9 16 19 13 33 -10z m30 -81 c-3 -20 -9 -23 -43 -23 -34
0 -40 3 -43 23 -3 20 1 22 43 22 42 0 46 -2 43 -22z"/>
<path d="M913 2203 c-21 -8 -15 -18 12 -18 14 0 24 4 22 9 -4 12 -18 16 -34 9z"/>
<path d="M803 2193 c-26 -10 -12 -19 23 -15 25 3 32 7 23 13 -15 10 -27 10
-46 2z"/>
<path d="M105 1910 c-3 -6 1 -7 9 -4 18 7 21 14 7 14 -6 0 -13 -4 -16 -10z"/>
<path d="M150 1900 c8 -5 20 -10 25 -10 6 0 3 5 -5 10 -8 5 -19 10 -25 10 -5
0 -3 -5 5 -10z"/>
<path d="M91 1874 c0 -11 3 -14 6 -6 3 7 2 16 -1 19 -3 4 -6 -2 -5 -13z"/>
<path d="M372 1545 l-12 -25 60 0 c33 0 60 4 60 9 0 30 -14 41 -54 41 -36 0
-45 -4 -54 -25z"/>
<path d="M372 1433 l3 -48 50 0 50 0 3 48 3 47 -56 0 -56 0 3 -47z m66 6 c19
-29 1 -45 -22 -20 -10 11 -15 25 -11 30 9 16 19 13 33 -10z"/>
</g>
</svg>
